<svg xmlns="http://www.w3.org/2000/svg" viewBox="0 0 32 32" fill="none">
  <rect width="32" height="32" rx="6" fill="#8B5CF6"/>
  <!-- Left brace { -->
  <path d="M13 8.5C13 8.5 10.5 8.5 10.5 11L10.5 13.5C10.5 14.5 9.5 16 8 16C9.5 16 10.5 17.5 10.5 18.5L10.5 21C10.5 23.5 13 23.5 13 23.5" stroke="white" stroke-width="2" stroke-linecap="round" stroke-linejoin="round" fill="none"/>
  <!-- Right brace } -->
  <path d="M19 8.5C19 8.5 21.5 8.5 21.5 11L21.5 13.5C21.5 14.5 22.5 16 24 16C22.5 16 21.5 17.5 21.5 18.5L21.5 21C21.5 23.5 19 23.5 19 23.5" stroke="white" stroke-width="2" stroke-linecap="round" stroke-linejoin="round" fill="none"/>
</svg>
